<?xml version="1.0" encoding="UTF-8"?>
<svg width="275px" height="59px" viewBox="0 0 275 59" version="1.1" xmlns="http://www.w3.org/2000/svg" xmlns:xlink="http://www.w3.org/1999/xlink">
    <title>logo /Verhoeven's zagerij</title>
    <g id="logo-/Verhoeven's-zagerij" stroke="none" stroke-width="1" fill="none" fill-rule="evenodd">
        <polygon id="Fill-1" fill="#F8CA80" points="8.987 42.1619 274.016 42.1619 274.016 29.4069 8.987 29.4069"></polygon>
        <path d="M10.822,1.0007 L10.822,44.2887 L29.084,44.2887 L29.084,57.0437 L1.77635684e-15,57.0437 L1.77635684e-15,1.0007 L10.822,1.0007 Z M64.1602,1.0001 L67.2522,16.1701 L70.5372,1.0001 L85.3212,1.0001 L67.2522,45.6411 L49.3762,1.0001 L64.1602,1.0001 Z M29.0847,1 L29.0847,16.171 L34.2057,16.171 L34.2057,1 L45.8977,1 L45.8977,42.163 L34.2057,42.163 L34.2057,26.896 L29.0847,26.896 L29.0847,42.163 L17.3927,42.163 L17.3927,1 L29.0847,1 Z M89.7062,20.1284 C96.2032,20.1284 101.3242,25.4334 100.8782,32.9844 L100.8782,32.9844 L89.3792,32.9844 L89.3792,28.8104 L93.1132,28.8104 C93.1132,27.4444 91.2532,26.1924 89.9812,26.1924 C88.6402,26.1924 86.3842,27.5724 86.4412,30.9544 C86.5072,34.8184 88.2282,36.4364 90.0842,36.4364 C91.0122,36.4364 92.0862,35.7144 92.2582,34.7664 L92.2582,34.7664 L97.5042,38.8244 C96.3362,40.1334 95.1772,41.8724 90.2222,41.8604618 C84.4812,41.8464 79.2222,38.5984 79.2222,31.6554 C79.2222,24.9784 83.8972,20.1284 89.7062,20.1284 Z M172.0314,20.1284 C178.5284,20.1284 183.6494,25.4334 183.2024,32.9844 L183.2024,32.9844 L171.7034,32.9844 L171.7034,28.8104 L175.4384,28.8104 C175.4384,27.4444 173.5774,26.1924 172.3064,26.1924 C170.9654,26.1924 168.7084,27.5724 168.7664,30.9544 C168.8314,34.8184 170.5534,36.4364 172.4094,36.4364 C173.3364,36.4364 174.4104,35.7144 174.5824,34.7664 L174.5824,34.7664 L179.8284,38.8244 C178.6604,40.1334 177.5014,41.8724 172.5474,41.8604618 C166.8064,41.8464 161.5474,38.5984 161.5474,31.6554 C161.5474,24.9784 166.2224,20.1284 172.0314,20.1284 Z M212.6144,20.1284 C219.1114,20.1284 224.2324,25.4334 223.7854,32.9844 L223.7854,32.9844 L212.2864,32.9844 L212.2864,28.8104 L216.0214,28.8104 C216.0214,27.4444 214.1604,26.1924 212.8894,26.1924 C211.5474,26.1924 209.2914,27.5724 209.3494,30.9544 C209.4144,34.8184 211.1354,36.4364 212.9924,36.4364 C213.9194,36.4364 214.9934,35.7144 215.1654,34.7664 L215.1654,34.7664 L220.4114,38.8244 C219.2434,40.1334 218.0844,41.8724 213.1294,41.8604618 C207.3894,41.8464 202.1294,38.5984 202.1294,31.6554 C202.1294,24.9784 206.8054,20.1284 212.6144,20.1284 Z M148.9968,19.9655 C154.9598,19.9655 159.7928,24.7985 159.7928,30.7605 C159.7928,36.7235 154.9598,41.5575 148.9968,41.5575 C143.0348,41.5575 138.2018,36.7235 138.2018,30.7605 C138.2018,24.7985 143.0348,19.9655 148.9968,19.9655 Z M266.3486,20.1308 L270.5036,20.1328 L270.5036,28.5388 L270.24707,28.5387633 C267.966914,28.6475431 266.1516,30.5307412 266.1516,32.8388 L266.1516,32.8388 L266.1086,33.4668 C266.1086,37.8968 262.5176,41.4878 258.0876,41.4878 L258.0876,41.4878 L254.2226,41.4868 L254.2226,32.9348 C256.5996,32.9348 258.3816,30.9648 258.3816,28.5868 L258.3816,28.5868 L258.3756,28.0558 C258.3756,23.6258 261.9186,20.1308 266.3486,20.1308 L266.3486,20.1308 Z M114.8883,20.1326 L114.888093,20.1690071 C114.888025,20.1809843 114.887941,20.1958368 114.887841,20.2134458 L114.88707,20.351226 C114.883777,20.9425691 114.87453,22.6446312 114.867398,24.3561604 L114.865425,24.844475 C114.862255,25.6555911 114.859739,26.4450713 114.858748,27.0940028 L114.8588,28.0846018 C114.85903,28.1720947 114.859343,28.2511118 114.859744,28.3207016 L114.86,28.417 L114.847854,28.3657781 C114.710362,27.9304789 114.041124,27.4906 113.3423,27.4906 C112.5503,27.4906 111.7963,28.1516 111.7963,28.9246 L111.7963,41.4866 L103.3903,41.4866 L103.3903,28.5386 L103.3923,28.5386 C103.3923,23.8976 107.1553,20.1346 111.7963,20.1346 L114.8883,20.1326 Z M125.2275,12.7888 L125.2275,22.7418 C125.2275,22.7418 126.0005,20.1328 129.3825,20.1388 C133.5365,20.1458 135.4795,24.0858 135.4795,28.5388 L135.4695,41.4868 L127.9325,41.4868 L127.9265,29.7948 C127.9265,29.0778 127.2965,28.2068 126.5795,28.2068 C125.8625,28.2068 125.2335,29.0778 125.2335,29.7948 L125.2275,41.4868 L117.4005,41.4868 L117.4005,12.7888 L125.2275,12.7888 Z M190.6432,20.7119 L192.6242,28.5389 L194.6042,20.7119 L202.1412,20.7119 L192.6242,41.4869 L183.1062,20.7119 L190.6432,20.7119 Z M235.4289,20.1362 C240.5229,20.1362 244.7009,24.3142 244.7009,29.4082 L244.7009,29.4082 L244.7049,41.4862 L237.0229,41.4862 L237.0349,29.7462 C237.0349,28.8592 236.3639,28.1412 235.4769,28.1412 C234.5909,28.1412 233.8719,28.8592 233.8719,29.7462 L233.8719,29.7462 L233.8829,41.4862 L226.2009,41.4862 L226.2059,29.3602 C226.2059,24.2652 230.3349,20.1362 235.4289,20.1362 Z M148.9968,27.6865 C147.2998,27.6865 145.9228,29.0625 145.9228,30.7605 C145.9228,32.4585 147.2998,33.8355 148.9968,33.8355 C150.6948,33.8355 152.0718,32.4585 152.0718,30.7605 C152.0718,29.0625 150.6948,27.6865 148.9968,27.6865 Z M249.1026,12.7928 C251.5546,12.7928 253.5416,14.7808 253.5416,17.2338 L253.5416,17.2338 L253.5016,18.0548 C253.5016,18.3948 252.8216,20.5188 251.3236,21.4718 C250.2406,22.1608 250.3096,24.4318 249.1206,23.9008 C248.0716,23.4318 250.4056,23.3208 249.6326,22.0298 L249.6326,22.0298 L249.1026,21.6748 C246.6496,21.6748 244.6606,19.6858 244.6606,17.2338 C244.6606,14.7808 246.6496,12.7928 249.1026,12.7928 Z" id="Combined-Shape" fill="#007659"></path>
        <polygon id="Fill-3" fill="#007659" points="70.6338 44.2889 67.2518 51.5359 64.1598 44.2889 34.2058 44.2889 34.2058 57.0439 274.0168 57.0439 274.0168 44.2889"></polygon>
        <path d="M170.7018,46 C171.9748,46 172.9458,46.345 173.6188,47.037 C174.5168,47.855 174.9658,49.078 174.9658,50.71 C174.9658,52.308 174.5168,53.532 173.6188,54.382 C172.9458,55.073 171.9748,55.421 170.7018,55.421 C169.4298,55.421 168.4568,55.073 167.7848,54.382 C166.8838,53.532 166.4328,52.308 166.4328,50.71 C166.4328,49.078 166.8838,47.855 167.7848,47.037 C168.4568,46.345 169.4298,46 170.7018,46 Z M178.2745,46.2702 L178.2745,51.7382 C178.2745,52.3482 178.3475,52.7952 178.4915,53.0782 C178.7165,53.5762 179.2055,53.8262 179.9595,53.8262 C180.7105,53.8262 181.1965,53.5762 181.4225,53.0782 C181.5665,52.7952 181.6385,52.3482 181.6385,51.7382 L181.6385,46.2702 L183.5295,46.2702 L183.5295,51.7422 C183.5295,52.6872 183.3825,53.4242 183.0885,53.9532 C182.5425,54.9182 181.4995,55.4022 179.9595,55.4022 C178.4205,55.4022 177.3755,54.9182 176.8245,53.9532 C176.5305,53.4242 176.3845,52.6872 176.3845,51.7422 L176.3845,46.2702 L178.2745,46.2702 Z M100.5702,46.0416 C101.7012,46.0416 102.6092,46.3276 103.2962,46.9016 C103.9832,47.4756 104.3762,48.1916 104.4772,49.0486 L102.6472,49.0486 C102.5062,48.4406 102.1622,48.0156 101.6142,47.7746 C101.3082,47.6416 100.9682,47.5756 100.5942,47.5756 C99.8772,47.5756 99.2882,47.8456 98.8272,48.3856 C98.3662,48.9266 98.1362,49.7376 98.1362,50.8236 C98.1362,51.9166 98.3852,52.6906 98.8852,53.1446 C99.3842,53.5986 99.9522,53.8256 100.5882,53.8256 C101.2122,53.8256 101.7232,53.6466 102.1222,53.2886 C102.5202,52.9306 102.7662,52.4606 102.8582,51.8806 L100.7992,51.8806 L100.7992,50.3956 L104.5072,50.3956 L104.5072,55.1726 L103.2752,55.1726 L103.0882,54.0616 C102.7302,54.4816 102.4072,54.7776 102.1222,54.9516 C101.6302,55.2516 101.0262,55.4016 100.3102,55.4016 C99.1302,55.4016 98.1642,54.9936 97.4112,54.1766 C96.6262,53.3566 96.2332,52.2336 96.2332,50.8096 C96.2332,49.3686 96.6302,48.2136 97.4232,47.3446 C98.2162,46.4756 99.2652,46.0416 100.5702,46.0416 Z M131.8106,46.2706 L131.8106,52.4666 C131.8106,53.2236 131.6826,53.8236 131.4266,54.2666 C130.9936,55.0156 130.2116,55.3896 129.0826,55.3896 C127.9526,55.3896 127.1946,55.0866 126.8086,54.4806 C126.4226,53.8756 126.2306,53.0486 126.2306,52.0016 L126.2306,51.7966 L127.9876,51.7966 L127.9876,52.0016 C128.0026,52.6906 128.0736,53.1746 128.2006,53.4546 C128.3266,53.7336 128.5986,53.8736 129.0146,53.8736 C129.4266,53.8736 129.6986,53.7206 129.8316,53.4146 C129.9106,53.2336 129.9506,52.9276 129.9506,52.4966 L129.9506,46.2706 L131.8106,46.2706 Z M147.3843,46.2702 L150.9173,52.4762 L150.9173,46.2702 L152.6513,46.2702 L152.6513,55.1722 L150.7903,55.1722 L147.1663,48.8562 L147.1663,55.1722 L145.4343,55.1722 L145.4343,46.2702 L147.3843,46.2702 Z M268.765,53.3669 L268.765,55.1729 L266.935,55.1729 L266.935,53.3669 L268.765,53.3669 Z M92.3806,46.2703 L95.5306,55.1723 L93.5126,55.1723 L92.9256,53.3423 L89.6476,53.3423 L89.0446,55.1723 L87.0986,55.1723 L90.2766,46.2703 L92.3806,46.2703 Z M118.8323,46.2701 C119.4403,46.2831 119.9083,46.3591 120.2363,46.5011 C120.5643,46.6411 120.8423,46.8481 121.0693,47.1221 C121.2583,47.3471 121.4073,47.5961 121.5173,47.8711 C121.6273,48.1441 121.6823,48.4571 121.6823,48.8061 C121.6823,49.2301 121.5753,49.6451 121.3623,50.0531 C121.1493,50.4631 120.7963,50.7521 120.3053,50.9211 C120.7163,51.0861 121.0073,51.3211 121.1783,51.6241 C121.3493,51.9281 121.4353,52.3921 121.4353,53.0161 L121.4353,53.6151 C121.4353,54.0201 121.4513,54.2961 121.4833,54.4421 C121.5323,54.6711 121.6473,54.8401 121.8273,54.9491 L121.8273,55.1721 L119.7743,55.1721 C119.7173,54.9741 119.6773,54.8161 119.6533,54.6961 C119.6053,54.4461 119.5783,54.1901 119.5743,53.9271 L119.5623,53.1001 C119.5553,52.5331 119.4573,52.1551 119.2683,51.9651 C119.0803,51.7771 118.7263,51.6811 118.2093,51.6811 L116.3923,51.6811 L116.3923,55.1721 L114.5743,55.1721 L114.5743,46.2701 L118.8323,46.2701 Z M223.5044,46.2701 C224.0564,46.2791 224.5164,46.3421 224.8824,46.4631 C225.5074,46.6691 226.0124,47.0461 226.4004,47.5931 C226.7094,48.0371 226.9214,48.5141 227.0344,49.0311 C227.1474,49.5461 227.2034,50.0371 227.2034,50.5041 C227.2034,51.6871 226.9654,52.6901 226.4914,53.5111 C225.8454,54.6191 224.8504,55.1721 223.5044,55.1721 L219.6664,55.1721 L219.6664,46.2701 L223.5044,46.2701 Z M261.315,46.2702 L263.249,53.0292 L265.199,46.2702 L267.131,46.2702 L264.096,55.1722 L262.34,55.1722 L259.329,46.2702 L261.315,46.2702 Z M191.784,46.2702 L191.784,47.8462 L189.121,47.8462 L189.121,55.1722 L187.249,55.1722 L187.249,47.8462 L184.573,47.8462 L184.573,46.2702 L191.784,46.2702 Z M159.6691,46.2706 L159.6691,49.6636 L163.1301,49.6636 L163.1301,46.2706 L164.9761,46.2706 L164.9761,55.1726 L163.1301,55.1726 L163.1301,51.1976 L159.6691,51.1976 L159.6691,55.1726 L157.8201,55.1726 L157.8201,46.2706 L159.6691,46.2706 Z M86.4076,46.2703 L86.4076,47.7623 L81.7986,53.6023 L86.4196,53.6023 L86.4196,55.1723 L79.5476,55.1723 L79.5476,53.6023 L84.0976,47.8473 L79.6616,47.8473 L79.6616,46.2703 L86.4076,46.2703 Z M238.7084,46.2702 L238.7084,53.5722 L243.1534,53.5722 L243.1534,55.1722 L236.8484,55.1722 L236.8484,46.2702 L238.7084,46.2702 Z M212.6548,46.2702 L216.1888,52.4762 L216.1888,46.2702 L217.9218,46.2702 L217.9218,55.1722 L216.0618,55.1722 L212.4378,48.8562 L212.4378,55.1722 L210.7048,55.1722 L210.7048,46.2702 L212.6548,46.2702 Z M258.215,53.3669 L258.215,55.1729 L256.385,55.1729 L256.385,53.3669 L258.215,53.3669 Z M251.9535,46.2707 C253.0395,46.2867 253.8085,46.6027 254.2615,47.2187 C254.5335,47.5967 254.6695,48.0497 254.6695,48.5777 C254.6695,49.1207 254.5325,49.5587 254.2575,49.8877 C254.1045,50.0737 253.8765,50.2427 253.5785,50.3957 C254.0325,50.5607 254.3755,50.8217 254.6075,51.1807 C254.8375,51.5387 254.9535,51.9737 254.9535,52.4847 C254.9535,53.0127 254.8225,53.4857 254.5565,53.9037 C254.3885,54.1817 254.1785,54.4157 253.9265,54.6057 C253.6425,54.8217 253.3065,54.9707 252.9205,55.0517 C252.5345,55.1317 252.1155,55.1727 251.6625,55.1727 L247.6525,55.1727 L247.6525,46.2707 L251.9535,46.2707 Z M206.4533,46.2703 L209.6033,55.1723 L207.5853,55.1723 L206.9973,53.3423 L203.7203,53.3423 L203.1163,55.1723 L201.1713,55.1723 L204.3483,46.2703 L206.4533,46.2703 Z M194.7071,46.2706 L194.7071,49.6636 L198.1681,49.6636 L198.1681,46.2706 L200.0151,46.2706 L200.0151,55.1726 L198.1681,55.1726 L198.1681,51.1976 L194.7071,51.1976 L194.7071,55.1726 L192.8591,55.1726 L192.8591,46.2706 L194.7071,46.2706 Z M235.1814,46.2714 L235.1814,47.8464 L230.4714,47.8464 L230.4714,49.7374 L234.7944,49.7374 L234.7944,51.2834 L230.4714,51.2834 L230.4714,53.5724 L235.3994,53.5724 L235.3994,55.1714 L228.6534,55.1714 L228.6534,46.2714 L235.1814,46.2714 Z M112.8655,46.2714 L112.8655,47.8464 L108.1545,47.8464 L108.1545,49.7374 L112.4785,49.7374 L112.4785,51.2834 L108.1545,51.2834 L108.1545,53.5724 L113.0825,53.5724 L113.0825,55.1714 L106.3375,55.1714 L106.3375,46.2714 L112.8655,46.2714 Z M125.161,46.2709 L125.161,55.1719 L123.313,55.1719 L123.313,46.2709 L125.161,46.2709 Z M143.7976,46.2714 L143.7976,47.8464 L139.0866,47.8464 L139.0866,49.7374 L143.4116,49.7374 L143.4116,51.2834 L139.0866,51.2834 L139.0866,53.5724 L144.0146,53.5724 L144.0146,55.1714 L137.2696,55.1714 L137.2696,46.2714 L143.7976,46.2714 Z M170.7018,47.575 C169.9648,47.575 169.3768,47.847 168.9378,48.39 C168.4988,48.933 168.2798,49.707 168.2798,50.71 C168.2798,51.713 168.4988,52.485 168.9378,53.028 C169.3768,53.571 169.9648,53.844 170.7018,53.844 C171.4388,53.844 172.0228,53.571 172.4558,53.028 C172.8888,52.485 173.1048,51.713 173.1048,50.71 C173.1048,49.712 172.8888,48.939 172.4558,48.393 C172.0228,47.848 171.4388,47.575 170.7018,47.575 Z M223.1914,47.8171 L221.4724,47.8171 L221.4724,53.6271 L223.1914,53.6271 C224.0704,53.6271 224.6824,53.1941 225.0304,52.3281 C225.2184,51.8521 225.3144,51.2871 225.3144,50.6301 C225.3144,49.7241 225.1704,49.0301 224.8864,48.5451 C224.6024,48.0591 224.0364,47.8171 223.1914,47.8171 Z M251.6185,51.2527 L249.4275,51.2527 L249.4275,53.6267 L251.5885,53.6267 C251.9745,53.6267 252.2755,53.5737 252.4905,53.4697 C252.8795,53.2757 253.0745,52.9057 253.0745,52.3577 C253.0745,51.8947 252.8855,51.5767 252.5075,51.4037 C252.2965,51.3077 252.0005,51.2567 251.6185,51.2527 Z M91.3086,48.3053 L90.1536,51.8083 L92.4336,51.8083 L91.3086,48.3053 Z M205.3813,48.3053 L204.2263,51.8083 L206.5063,51.8083 L205.3813,48.3053 Z M118.4453,47.8171 L116.3923,47.8171 L116.3923,50.2081 L118.3943,50.2081 C118.7913,50.2081 119.0893,50.1601 119.2883,50.0621 C119.6403,49.8931 119.8163,49.5591 119.8163,49.0601 C119.8163,48.5211 119.6463,48.1591 119.3053,47.9731 C119.1153,47.8691 118.8273,47.8171 118.4453,47.8171 Z M251.3645,47.8167 L249.4275,47.8167 L249.4275,49.7797 L251.5905,49.7797 C251.9775,49.7797 252.2915,49.7057 252.5325,49.5587 C252.7745,49.4117 252.8955,49.1517 252.8955,48.7767 C252.8955,48.3627 252.7355,48.0887 252.4155,47.9557 C252.1405,47.8627 251.7905,47.8167 251.3645,47.8167 Z" id="Combined-Shape" fill="#FFFFFF"></path>
    </g>
</svg>
